<?xml version="1.0" encoding="UTF-8" standalone="no"?>
<svg
   xmlns:dc="http://purl.org/dc/elements/1.1/"
   xmlns:cc="http://creativecommons.org/ns#"
   xmlns:rdf="http://www.w3.org/1999/02/22-rdf-syntax-ns#"
   xmlns:svg="http://www.w3.org/2000/svg"
   xmlns="http://www.w3.org/2000/svg"
   xmlns:sodipodi="http://sodipodi.sourceforge.net/DTD/sodipodi-0.dtd"
   xmlns:inkscape="http://www.inkscape.org/namespaces/inkscape"
   width="210mm"
   height="297mm"
   viewBox="0 0 210 297"
   version="1.1"
   id="svg27"
   inkscape:version="1.0.1 (3bc2e813f5, 2020-09-07)"
   sodipodi:docname="Jeff Probst.svg">
  <defs
     id="defs21" />
  <sodipodi:namedview
     id="base"
     pagecolor="#ffffff"
     bordercolor="#666666"
     borderopacity="1.0"
     inkscape:pageopacity="0.0"
     inkscape:pageshadow="2"
     inkscape:zoom="0.35"
     inkscape:cx="-381.84545"
     inkscape:cy="448.35323"
     inkscape:document-units="mm"
     inkscape:current-layer="layer1"
     inkscape:document-rotation="0"
     showgrid="false"
     inkscape:window-width="1920"
     inkscape:window-height="1001"
     inkscape:window-x="-9"
     inkscape:window-y="-9"
     inkscape:window-maximized="1" />
  <metadata
     id="metadata24">
    <rdf:RDF>
      <cc:Work
         rdf:about="">
        <dc:format>image/svg+xml</dc:format>
        <dc:type
           rdf:resource="http://purl.org/dc/dcmitype/StillImage" />
        <dc:title></dc:title>
      </cc:Work>
    </rdf:RDF>
  </metadata>
  <g
     inkscape:label="Layer 1"
     inkscape:groupmode="layer"
     id="layer1">
    <path
       style="fill:#000000;stroke-width:0.264583"
       d="m -91.375743,218.95223 c -0.02784,0.0667 -0.03022,0.12588 0.0026,0.16485 -1.62e-4,-0.002 -8.5e-5,-0.005 -5.3e-4,-0.007 -0.0016,-0.0507 -0.0026,-0.10452 -0.0021,-0.15761 z"
       id="path2177" />
    <path
       style="fill:#000000;stroke-width:0.264583"
       d="m -152.12242,164.79998 c 1.6e-4,0.005 1.7e-4,0.011 5.3e-4,0.0165 0.006,10e-4 0.0117,0.002 0.0176,0.003 -0.003,-0.005 -0.007,-0.0106 -0.01,-0.016 -0.003,-0.001 -0.005,-0.002 -0.008,-0.004 z"
       id="path2175" />
    <path
       style="fill:#000000;stroke-width:0.264583"
       d="m 75.117969,113.01215 c -0.20097,0.0249 -0.4959,0.21939 -0.96635,0.53072 -1.18252,0.78255 -1.17559,0.77305 -3.34398,4.77232 -2.1107,3.89285 -3.34468,5.13695 -6.06009,6.11022 -1.24436,0.446 -2.82542,1.2829 -3.83646,2.03088 -0.94588,0.69979 -2.65252,1.78068 -3.79254,2.40141 -9.51053,5.1783 -11.39862,7.82401 -13.98881,19.60397 -1.03853,4.72314 -1.0964,24.64303 -0.0811,27.9585 0.0668,0.21828 0.30574,1.63264 0.53072,3.14296 0.25444,1.70808 0.70447,3.41921 1.19062,4.52685 0.53309,1.2146 0.87078,2.5706 1.06195,4.26538 0.46762,4.14553 0.53571,4.28592 3.58273,7.37939 3.15267,3.20075 3.60933,4.0452 4.20956,7.77885 0.36044,2.24218 0.6298,3.00809 1.86966,5.31957 0.79661,1.48513 1.44849,2.95492 1.44849,3.26647 0,0.31154 0.23389,1.25143 0.51986,2.08876 0.28597,0.83732 0.76467,2.89161 1.06402,4.5651 1.73476,9.69816 1.90366,10.8801 1.92856,13.49375 0.0146,1.52797 -0.0711,3.86875 -0.19068,5.20123 -0.19694,2.19436 0.21393,9.90626 0.5581,10.47533 0.19418,0.32111 88.724301,0.2463 88.724301,-0.0749 0,-0.15036 -0.28925,-0.84319 -0.64234,-1.53996 -1.15689,-2.28303 -1.4923,-4.23455 -2.64635,-15.38459 -0.2184,-2.11006 -0.47004,-4.84848 -0.55913,-6.08541 -0.27345,-3.79797 -1.14627,-7.95568 -1.66399,-7.92769 -0.0974,0.005 -1.84361,0.22139 -3.88089,0.4806 -7.2678,0.92467 -21.57323,-1.56925 -30.24105,-5.27255 l -2.49753,-1.06712 -2.41639,1.5906 c -2.81948,1.85619 -5.207271,2.98679 -7.590751,3.5941 -0.93747,0.23887 -3.23904,0.9129 -5.11441,1.4981 -2.08158,0.64962 -4.80234,1.26032 -6.98511,1.56786 l -3.57549,0.50384 -2.47633,-0.67437 c -2.26548,-0.61718 -2.74429,-0.6591 -5.6193,-0.49093 -9.26846,0.54212 -10.32522,-1.16714 -9.34206,-15.10915 l 0.18758,-2.65359 1.05834,-0.94774 c 0.58208,-0.52139 1.83223,-1.60598 2.77812,-2.41019 0.94588,-0.80421 2.92535,-2.70543 4.39921,-4.22455 1.47387,-1.51913 3.05145,-2.91603 3.50573,-3.1042 0.45428,-0.18817 0.82631,-0.48711 0.82631,-0.66456 0,-0.45443 -5.77787,-3.35705 -8.43308,-4.23644 -5.14257,-1.70318 -5.93968,-5.37858 -1.1374,-5.24515 0.93888,0.0261 1.60135,-0.046 1.47175,-0.1602 -0.50478,-0.44474 -3.2387,-1.37064 -5.07876,-1.71979 -2.80623,-0.53249 -4.41878,-2.42085 -3.69796,-4.33049 0.25937,-0.68717 0.23069,-0.96443 -0.17777,-1.72289 -0.99846,-1.85402 0.3862,-3.36517 3.08353,-3.36517 1.8711,0 1.99871,-0.17576 0.87436,-1.20561 -2.08009,-1.90534 -1.09112,-2.99382 2.1761,-2.39417 1.27597,0.23418 3.10191,0.42556 4.05763,0.4253 3.90676,-0.001 7.49319,1.63927 9.4878,4.33927 0.58516,0.7921 1.68168,1.95506 2.43654,2.58485 3.89539,3.24998 4.57376,4.13678 7.13445,9.32501 0.64024,1.29735 1.64513,2.89162 2.23294,3.54294 l 1.06866,1.18442 3.03238,0.0822 c 9.674771,0.26305 18.084211,-1.59162 28.961541,-6.38824 0.43656,-0.19251 1.5414,-0.65835 2.45566,-1.03508 0.91426,-0.37674 2.46206,-1.05333 3.43959,-1.50327 5.80949,-2.67404 7.29171,-2.27405 10.43502,2.81637 2.94943,4.77645 3.52021,7.04554 2.34921,9.34103 -0.66168,1.29699 -0.61924,1.30934 1.92753,0.55087 3.24168,-0.96541 5.47189,-0.40436 9.02684,2.27118 1.06147,0.79888 2.99937,2.16098 4.30671,3.02669 3.12646,2.07034 5.14207,4.05404 5.66839,5.58002 0.59212,1.71678 1.00321,3.582 1.00821,4.5682 0.007,1.56185 0.35473,1.67863 1.45417,0.49041 3.19771,-3.4561 3.21737,-5.91856 0.12144,-15.30088 -2.47111,-7.48878 -3.57448,-10.59644 -4.64519,-13.0855 -1.10132,-2.56005 -2.02687,-5.59411 -2.89233,-9.48056 -0.37874,-1.70076 -1.07335,-3.85954 -1.57459,-4.8948 -1.06186,-2.19313 -1.55259,-3.87518 -2.12286,-7.27604 -0.62877,-3.75011 -1.88823,-7.17744 -4.95939,-13.49375 -4.5237,-9.3037 -4.99984,-9.76068 -14.17898,-13.6095 -0.9208,-0.3861 -3.27446,-1.51729 -5.23017,-2.51406 -1.95787,-0.99788 -4.51521,-2.07132 -5.69061,-2.38848 -4.34168,-1.17151 -9.10606,-4.17836 -13.79709,-8.708 -2.27433,-2.19612 -2.84427,-2.63003 -2.84427,-2.16472 0,0.75933 1.24765,5.67445 1.73891,6.85022 0.96881,2.31867 0.75118,4.87809 -0.72037,8.47804 -1.76595,4.31996 -2.55818,6.62879 -3.1011,9.03769 -0.62579,2.77654 -1.35516,8.58251 -1.36116,10.8381 -0.0114,4.10198 -1.10949,2.69489 -3.28972,-4.21577 -0.81137,-2.57179 -3.087441,-5.2291 -6.585641,-7.68893 -1.13823,-0.80036 -3.04241,-2.176 -4.23127,-3.05718 -1.18886,-0.88118 -3.36974,-2.40106 -4.84673,-3.37757 -5.12908,-3.39095 -9.74551,-10.20017 -10.6841,-15.75976 -0.19226,-1.13875 -0.26657,-1.56753 -0.60152,-1.52601 z"
       id="path2171" />
    <path
       style="fill:#000000;stroke-width:0.264583"
       d="m 92.33471,44.481152 c -0.38282,-0.01333 -1.88465,0.832496 -3.07578,1.882055 l -1.26607,1.115695 -2.64893,-0.04186 c -1.45695,-0.02289 -3.36485,0.09911 -4.24006,0.271301 -1.4826,0.291685 -1.64447,0.273982 -2.36523,-0.2589 -0.96118,-0.710631 -1.98527,-0.372575 -3.41271,1.126546 -0.6956,0.730544 -1.12335,0.957564 -1.80351,0.957564 -1.25971,0 -1.77767,0.351412 -2.84168,1.925981 -0.51346,0.759839 -1.22963,1.78602 -1.59112,2.280481 -0.53381,0.730179 -0.65681,1.209239 -0.65681,2.551266 0,1.850073 -0.11955,1.973522 -1.90427,1.973522 -1.25623,0 -2.92779,0.860816 -3.40548,1.753386 -0.37523,0.70112 -0.14413,1.16061 0.34003,0.67644 0.1722,-0.1722 0.64622,-0.31316 1.05368,-0.31316 0.99684,0 0.96626,0.52348 -0.1726,2.94918 -2.20024,4.68635 -2.32447,13.10384 -0.28577,19.35902 0.34083,1.04576 0.70284,2.45951 0.80461,3.14141 0.15462,1.03606 0.34365,1.34589 1.1498,1.88671 0.53058,0.35595 1.85776,1.59867 2.94917,2.76158 1.0914,1.16291 2.05531,2.12979 2.1425,2.14819 0.0872,0.0185 0.22471,-3.14198 0.30541,-7.02282 l 0.14676,-7.0559 -0.74052,-3.06441 c -2.31201,-9.56531 -0.77416,-12.87801 6.57841,-14.17072 3.12254,-0.54899 5.19673,-1.14078 8.36848,-2.38796 11.25615,-4.426097 17.21721,-0.685838 18.51308,11.61582 0.30529,2.8981 0.59775,4.18146 1.69706,7.45226 0.73041,2.1732 1.52641,5.08228 1.7694,6.46472 0.24298,1.38245 0.50109,2.69214 0.57309,2.91042 0.13864,0.42041 0.12622,0.45062 0.99219,-2.51354 0.25508,-0.87313 0.68315,-1.89701 0.95084,-2.27531 0.47469,-0.67073 0.47328,-0.72324 -0.063,-2.11667 -0.64206,-1.66809 -1.27513,-5.50868 -1.28313,-7.77885 -0.003,-0.87313 -0.36112,-3.00858 -0.79582,-4.74597 -0.4347,-1.73739 -0.79059,-3.70192 -0.79064,-4.36562 -2.7e-4,-4.35044 -5.48467,-14.255663 -8.15041,-14.720033 -0.5375,-0.09364 -1.60087,-0.514599 -2.36265,-0.935345 -0.9859,-0.544525 -1.75046,-0.765328 -2.65307,-0.765328 -1.92727,0 -3.07827,-1.112158 -2.13113,-2.059305 0.4226,-0.422603 0.47993,-0.60579 0.30592,-0.611849 z"
       id="path1964" />
  </g>
</svg>
